<svg width="26" height="26" xmlns="http://www.w3.org/2000/svg" xml:space="preserve" version="1.1">

 <g>
  <title>Layer 1</title>
  <g id="svg_1">
   <path id="svg_2" clip-rule="evenodd" fill-rule="evenodd" d="m6.67829,6.51971l12.70693,0c0.06269,0 0.11492,0.03885 0.11492,0.08548c0,0.61195 0,0.20398 0,0.81399c0,0.04662 -0.05224,0.08548 -0.11492,0.08548l-12.70693,0c-0.07575,0 -0.13843,-0.04662 -0.13843,-0.10296c0,-0.6003 0,-0.18067 0,-0.78097c0,-0.0544 0.06269,-0.10102 0.13843,-0.10102l0,0zm-3.26227,-5.11514l2.0399,0l0,-0.95192c0,-0.24867 0.33432,-0.45265 0.74439,-0.45265l0,0c0.41007,0 0.74439,0.20398 0.74439,0.45265l0,0.94998l3.23877,0l0,-0.94998c0,-0.24867 0.33432,-0.45265 0.74178,-0.45265l0,0c0.41007,0 0.74439,0.20398 0.74439,0.45265l0,0.94998l3.23877,0l0,-0.94998c0,-0.24867 0.33432,-0.45265 0.74439,-0.45265l0,0c0.41007,0 0.74439,0.20398 0.74439,0.45265l0,0.94998l3.23877,0l0,-0.94998c0,-0.24867 0.33432,-0.45265 0.74439,-0.45265l0,0c0.41007,0 0.74439,0.20398 0.74439,0.45265l0,0.94998l1.49924,0c1.32946,0 2.41601,0.80816 2.41601,1.797l0,18.87337c0,0.98884 -1.08655,1.797 -2.41601,1.797l-19.20797,0c-1.32946,0 -2.41601,-0.80816 -2.41601,-1.797l0,-18.87142c0,-0.98884 1.08655,-1.797 2.41601,-1.797l0,0zm0.19328,1.52891l1.84662,0l0,0.67412c0,0.24867 0.33432,0.45265 0.74439,0.45265l0,0c0.41007,0 0.74439,-0.20398 0.74439,-0.45265l0,-0.67412l3.23877,0l0,0.67412c0,0.24867 0.33432,0.45265 0.74439,0.45265l0,0c0.41007,0 0.74439,-0.20398 0.74439,-0.45265l0,-0.67412l3.23877,0l0,0.67412c0,0.24867 0.33432,0.45265 0.74439,0.45265l0,0c0.41007,0 0.74439,-0.20398 0.74439,-0.45265l0,-0.67412l3.23877,0l0,0.67412c0,0.24867 0.33432,0.45265 0.74439,0.45265l0,0c0.41007,0 0.74439,-0.20398 0.74439,-0.45265l0,-0.67412l1.30595,0c0.3735,0 0.68171,0.22924 0.68171,0.50705l0,18.39352c0,0.27586 -0.30821,0.50705 -0.68171,0.50705l-18.82402,0c-0.37089,0 -0.68171,-0.2273 -0.68171,-0.50705l0,-18.39352c0,-0.27781 0.30821,-0.50705 0.68171,-0.50705l0,0zm3.06899,17.44354l12.70693,0c0.06269,0 0.11492,-0.03885 0.11492,-0.08548c0,-0.61195 0,-0.20398 0,-0.81399c0,-0.04662 -0.05224,-0.08548 -0.11492,-0.08548l-12.70693,0c-0.07575,0 -0.13843,0.04662 -0.13843,0.10296c0,0.53036 0,0.25061 0,0.78097c0,0.0544 0.06269,0.10102 0.13843,0.10102l0,0zm0,-3.21712l12.70693,0c0.06269,0 0.11492,-0.03885 0.11492,-0.08548c0,-0.61195 0,-0.11073 0,-0.72074c0,-0.04662 -0.05224,-0.08548 -0.11492,-0.08548l-12.70693,0c-0.07575,0 -0.13843,0.04662 -0.13843,0.10296c0,0.6003 0,0.08742 0,0.68772c0,0.0544 0.06269,0.10102 0.13843,0.10102l0,0zm0,-3.21906l12.70693,0c0.06269,0 0.11492,-0.03885 0.11492,-0.08548c0,-0.61195 0,-0.29723 0,-0.90724c0,-0.04662 -0.05224,-0.08548 -0.11492,-0.08548l-12.70693,0c-0.07575,0 -0.13843,0.04662 -0.13843,0.10296c0,0.6003 0,0.27392 0,0.87422c0,0.0544 0.06269,0.10102 0.13843,0.10102l0,0zm0,-3.21712l12.70693,0c0.06269,0 0.11492,-0.03885 0.11492,-0.08548c0,-0.61195 0,-0.20398 0,-0.81399c0,-0.04662 -0.05224,-0.08548 -0.11492,-0.08548l-12.70693,0c-0.07575,0 -0.13843,0.04662 -0.13843,0.10296c0,0.6003 0,0.18067 0,0.78097c0,0.0544 0.06269,0.10102 0.13843,0.10102l0,0z" class="st0"/>
  </g>
 </g>
</svg>