<?xml version="1.0" standalone="no"?>
<!DOCTYPE svg PUBLIC "-//W3C//DTD SVG 20010904//EN"
 "http://www.w3.org/TR/2001/REC-SVG-20010904/DTD/svg10.dtd">
<svg version="1.0" xmlns="http://www.w3.org/2000/svg"
 width="612.000000pt" height="612.000000pt" viewBox="0 0 612.000000 612.000000"
 preserveAspectRatio="xMidYMid meet">

<g transform="translate(0.000000,612.000000) scale(0.100000,-0.100000)"
fill="#000000" stroke="none">
<path d="M2975 4974 c-84 -46 -115 -100 -115 -203 l0 -70 -57 -11 c-238 -50
-492 -210 -655 -415 -84 -104 -158 -256 -199 -406 -21 -80 -23 -106 -28 -529
l-6 -445 -28 -59 c-23 -49 -67 -105 -192 -242 -5 -6 -46 -51 -90 -100 -44 -48
-103 -114 -132 -145 -63 -70 -74 -111 -47 -171 10 -23 32 -49 49 -59 29 -18
90 -19 1578 -19 1730 0 1588 -6 1627 74 40 83 28 101 -244 396 -178 194 -200
221 -223 280 -15 39 -18 99 -24 470 -3 234 -9 435 -14 447 -5 17 -18 24 -54
28 -170 23 -286 78 -396 189 -139 139 -203 303 -192 491 3 50 8 98 12 108 9
22 -60 55 -198 94 l-97 27 0 71 c0 82 -23 130 -83 179 -31 25 -48 31 -100 33
-43 2 -71 -2 -92 -13z"/>
<path d="M4114 4930 c-112 -16 -187 -52 -266 -128 -112 -106 -159 -213 -159
-362 -2 -373 404 -611 730 -428 67 37 156 127 193 195 99 184 71 414 -70 566
-111 119 -275 179 -428 157z m156 -490 l0 -290 -65 0 -66 0 3 215 c2 118 1
215 -1 215 -2 0 -23 -16 -47 -35 -23 -19 -47 -35 -52 -35 -5 0 -22 16 -37 36
l-27 36 33 28 c19 15 59 48 89 73 51 43 59 46 113 46 l57 1 0 -290z"/>
<path d="M2530 1863 c0 -10 7 -48 14 -84 59 -275 339 -456 618 -398 130 27
268 123 338 234 32 51 64 147 74 223 l6 42 -525 0 c-493 0 -525 -1 -525 -17z"/>
</g>
</svg>
